<svg version="1.2" xmlns="http://www.w3.org/2000/svg" viewBox="0 0 641 200" width="641" height="200">
	<style>
		.s0 { fill: #475569 } 
		.s1 { fill: #000000 } 
	</style>
	<path class="s0" d="m187.25 72.1h-4.4v-37.4h4.4zm21.18-24.75q0 4.07-1.71 7.04-1.7 2.97-4.56 4.57-2.81 1.59-6.28 1.59-3.13 0-5.55-1.59-2.37-1.6-3.74-4.57-1.32-2.97-1.32-7.04 0-4.13 1.32-7.04 1.37-2.97 3.74-4.56 2.42-1.6 5.55-1.6 3.47 0 6.28 1.6 2.86 1.59 4.56 4.56 1.71 2.91 1.71 7.04zm-4.46 0q0-2.91-1.21-4.95-1.15-2.03-3.13-3.08-1.93-1.05-4.29-1.04-1.93-0.01-3.8 1.04-1.87 1.05-3.08 3.08-1.21 2.04-1.21 4.95 0 2.91 1.21 4.95 1.21 2.04 3.08 3.08 1.87 1.05 3.8 1.05 2.36 0 4.29-1.05 1.98-1.04 3.13-3.08 1.21-2.04 1.21-4.95zm9.42 0q0-3.85 1.71-6.82 1.76-2.97 4.73-4.67 2.97-1.71 6.65-1.71 3.74 0 6.66 1.71 2.97 1.7 4.67 4.67 1.76 2.97 1.76 6.82 0 3.79-1.76 6.82-1.7 2.97-4.67 4.68-2.92 1.7-6.66 1.7-3.68 0-6.65-1.7-2.97-1.71-4.73-4.68-1.71-3.03-1.71-6.82zm4.46 0q0 2.64 1.1 4.68 1.15 2.03 3.08 3.24 1.98 1.16 4.45 1.16 2.48 0 4.4-1.16 1.98-1.21 3.08-3.24 1.16-2.04 1.16-4.68 0-2.64-1.16-4.67-1.1-2.09-3.08-3.25-1.92-1.15-4.4-1.15-2.47 0-4.45 1.15-1.93 1.16-3.08 3.25-1.1 2.03-1.1 4.67zm24.21-12.65h4.95l6.33 16.45 6.87-18.37 7.37 18.48 6.38-16.56h4.95l-11 27.23-7.64-18.43-7.21 18.43zm51.32 25.85q-3.52 0-6.27-1.65-2.7-1.71-4.24-4.68-1.48-2.97-1.48-6.87 0-3.96 1.54-6.93 1.59-2.97 4.4-4.62 2.86-1.65 6.6-1.65 3.74 0 6.38 1.59 2.69 1.54 4.12 4.46 1.43 2.91 1.43 6.93 0 0.38-0.05 0.82 0 0.39 0 0.5h-21.62v-3.74h18.15l-1.76 2.53q0.17-0.28 0.33-0.83 0.17-0.6 0.17-0.99 0-2.25-0.94-3.9-0.88-1.66-2.47-2.59-1.6-0.93-3.74-0.93-2.53 0-4.35 1.1-1.76 1.04-2.75 3.08-0.93 1.98-0.99 4.89 0 2.97 0.94 5.06 0.93 2.09 2.75 3.19 1.81 1.1 4.4 1.1 2.58 0 4.56-1.1 1.98-1.15 3.36-3.46l3.57 2.25q-1.98 3.19-5 4.84-2.97 1.59-7.04 1.6zm24.01-25.85v25.3h-4.4v-25.3zm7.65 4.84q-0.88-0.67-1.6-0.94-0.71-0.33-1.81-0.33-1.65 0-2.59 0.83-0.93 0.82-1.32 2.25-0.33 1.43-0.33 3.25h-1.98q0-3.03 1.05-5.34 1.1-2.37 2.8-3.74 1.71-1.38 3.47-1.37 1.37-0.01 2.53 0.38 1.21 0.33 2.2 1.38zm16.89 21.01q-3.52 0-6.27-1.65-2.69-1.71-4.23-4.68-1.49-2.97-1.49-6.87 0-3.96 1.54-6.93 1.6-2.98 4.4-4.62 2.86-1.65 6.6-1.65 3.74 0 6.38 1.59 2.7 1.54 4.13 4.46 1.43 2.91 1.43 6.93 0 0.38-0.06 0.82 0 0.39 0 0.5h-21.61v-3.74h18.15l-1.76 2.53q0.16-0.28 0.33-0.83 0.16-0.6 0.16-0.99 0-2.25-0.93-3.9-0.88-1.66-2.48-2.59-1.59-0.93-3.74-0.93-2.53 0-4.34 1.1-1.76 1.04-2.75 3.08-0.94 1.98-0.99 4.89 0 2.97 0.93 5.06 0.94 2.09 2.75 3.19 1.82 1.1 4.4 1.1 2.59 0 4.57-1.1 1.98-1.16 3.35-3.46l3.58 2.25q-1.98 3.19-5.01 4.84-2.97 1.59-7.04 1.6zm38.59-43.45h4.4v42.9h-4.4zm-21.17 30.25q0-4.13 1.7-7.04 1.71-2.98 4.57-4.57 2.86-1.59 6.27-1.59 3.19 0 5.55 1.59 2.37 1.59 3.69 4.57 1.37 2.91 1.37 7.04 0 4.06-1.37 7.04-1.32 2.97-3.69 4.56-2.36 1.59-5.55 1.6-3.41-0.01-6.27-1.6-2.86-1.59-4.57-4.56-1.7-2.98-1.7-7.04zm4.45 0q0 2.91 1.16 4.95 1.21 2.03 3.19 3.08 1.98 1.04 4.29 1.04 1.92 0 3.79-1.04 1.87-1.05 3.08-3.08 1.21-2.04 1.21-4.95 0-2.92-1.21-4.95-1.21-2.04-3.08-3.08-1.87-1.05-3.79-1.05-2.31 0-4.29 1.05-1.98 1.04-3.19 3.08-1.16 2.03-1.16 4.95zm51.93-30.25v42.9h-4.4v-42.9zm21.17 30.25q0 4.06-1.7 7.04-1.71 2.97-4.57 4.56-2.8 1.59-6.27 1.6-3.13-0.01-5.55-1.6-2.37-1.59-3.74-4.56-1.32-2.98-1.32-7.04 0-4.13 1.32-7.04 1.37-2.98 3.74-4.57 2.42-1.59 5.55-1.59 3.47 0 6.27 1.59 2.86 1.59 4.57 4.57 1.7 2.91 1.7 7.04zm-4.45 0q0-2.92-1.21-4.95-1.16-2.04-3.14-3.08-1.92-1.05-4.29-1.05-1.92 0-3.79 1.05-1.87 1.04-3.08 3.08-1.21 2.03-1.21 4.95 0 2.91 1.21 4.95 1.21 2.03 3.08 3.08 1.87 1.04 3.79 1.04 2.37 0 4.29-1.04 1.98-1.05 3.14-3.08 1.21-2.04 1.21-4.95zm30.89-12.65l-16.5 37.4h-4.95l6.93-15.68-9.68-21.72h5.22l8.03 19.8-1.81-0.22 7.81-19.58z"/>
	<path id="Survey Monkey Pro" class="s1" aria-label="Survey Monkey Pro"  d="m64.5 165.6q-4.8 0-8.6-1.3-3.6-1.5-5.8-3.5-2-2.1-2-3.9 0-0.9 0.5-1.9 0.5-1 1.2-1.6 0.9-0.8 1.8-0.8 1 0 1.9 0.9 1 0.9 2.3 2.1 1.3 1.1 3.3 2 2 0.9 5.1 0.9 2.7 0 4.7-0.8 2.2-0.9 3.4-2.6 1.2-1.8 1.2-4.5 0-2.8-1.3-4.5-1.3-1.9-3.5-3.2-2.1-1.3-4.6-2.2-2.6-1.2-5.2-2.3-2.5-1.2-4.8-2.9-2-1.7-3.4-4.2-1.3-2.6-1.3-6.4 0-4.1 1.6-6.8 1.5-2.8 4-4.4 2.6-1.6 5.5-2.3 3.1-0.8 6.1-0.8 1.8 0 4 0.4 2.4 0.2 4.5 0.9 2.1 0.6 3.5 1.6 1.4 1 1.4 2.5 0 0.7-0.3 1.8-0.4 0.9-1.1 1.8-0.7 0.7-1.8 0.7-1 0-2.2-0.7-1.1-0.7-3.1-1.4-1.8-0.7-5-0.7-2.6 0-4.7 0.7-2.1 0.7-3.4 2.2-1.1 1.4-1.1 3.8 0 2.3 1.3 3.9 1.3 1.4 3.4 2.6 2.2 1 4.7 2 2.6 0.9 5.1 2.3 2.6 1.2 4.8 3.1 2.2 1.8 3.4 4.7 1.4 2.8 1.4 7 0 5.3-2.2 8.9-2.2 3.5-6 5.2-3.8 1.7-8.7 1.7zm38.6 0q-4.3 0-7.8-2-3.4-2.1-5.5-5.4-2.1-3.4-2.1-7.2v-18.5q0-1 1.1-1.8 1.2-0.8 2.8-0.8 1.6 0 2.7 0.8 1.2 0.8 1.2 1.8v18.5q0 2 0.9 3.8 1.1 1.7 2.8 2.8 1.7 1.1 3.8 1.1 2.1 0 3.8-1 1.7-1.2 2.7-2.9 1-1.8 1-3.8v-18.5q0-1.1 1.2-1.8 1.2-0.8 2.7-0.8 1.8 0 2.8 0.8 1.1 0.7 1.1 1.8v18.5q0 3.9-2.1 7.3-2.1 3.3-5.6 5.3-3.4 2-7.5 2zm26.7-0.6q-1.6 0-2.7-0.8-1.1-0.8-1.1-1.8v-29.9q0-1.2 1.1-1.8 1.1-0.8 2.7-0.8 1.5 0 2.5 0.8 1.1 0.6 1.1 1.8v3.2q0.8-1.6 2.1-3 1.4-1.4 3.2-2.3 1.9-0.9 4.1-0.9h2.4q1.2 0 2 1 0.9 1 0.9 2.4 0 1.4-0.9 2.5-0.8 1-2 1h-2.4q-2.2 0-4.4 1.4-2 1.2-3.3 3.7-1.3 2.4-1.3 5.8v15.1q0 1-1.1 1.8-1.2 0.8-2.9 0.8zm35.1 0.7q-1.2 0-2.2-0.3-1-0.4-1.3-1.2l-12.4-30q-0.1-0.2-0.3-0.6-0.1-0.4-0.1-0.6 0-1 0.9-1.7 0.8-0.8 2-1.2 1.2-0.5 2.2-0.5 0.8 0 1.4 0.4 0.7 0.3 1 1l8.8 23.4 8.8-23.2q0.3-0.8 0.8-1.1 0.6-0.5 1.6-0.5 0.8 0 1.9 0.5 1.3 0.4 2.2 1.2 1 0.7 1 1.7 0 0.3-0.1 0.6-0.1 0.3-0.2 0.6l-12.4 30q-0.4 0.7-1.4 1.2-1 0.3-2.2 0.3zm37-0.1q-5 0-8.9-1.8-3.9-1.9-6.1-5.2-2.2-3.3-2.2-7.7v-7.1q0-3.8 2.1-7.1 2.1-3.3 5.6-5.2 3.5-2 7.8-2 3.9 0 7.2 1.8 3.4 1.7 5.4 4.8 2.1 3 2.1 7.1 0 3.1-1 4.4-1 1.3-2.6 1.6-1.5 0.3-3.2 0.3h-15.6v1.7q0 3.7 2.7 6 2.7 2.1 6.9 2.1 2.7 0 4.2-0.7 1.7-0.8 2.8-1.4 1.1-0.7 2.1-0.7 0.9 0 1.5 0.6 0.8 0.6 1 1.5 0.5 0.7 0.5 1.3 0 1.1-1.6 2.5-1.4 1.3-4.2 2.3-2.7 0.9-6.5 0.9zm-9.4-23.3v2.4h12.3q1.6 0 2.1-0.4 0.7-0.5 0.7-1.8 0-2-1.1-3.5-0.9-1.7-2.7-2.6-1.6-1-3.8-1-2 0-3.7 0.9-1.7 0.9-2.8 2.5-1 1.5-1 3.5zm28.7 39.4q-1.5 0-2.6-0.6-1-0.7-1-2.8 0-1.3 0.4-2.3 0.6-1 1.7-1 1.5 0 3.1-0.7 1.7-0.7 3.2-2.2 1.7-1.5 2.8-3.8 1.2-2.3 1.6-5.5l-12.5-28.6q-0.3-0.6-0.3-1.1 0-1 0.8-1.8 0.9-0.9 2.1-1.4 1.2-0.5 2.2-0.5 0.8 0 1.4 0.4 0.7 0.3 1 1l9.3 24.1 8-24.1q0.3-0.7 0.9-1 0.7-0.4 1.4-0.4 0.9 0 2 0.6 1.3 0.4 2.2 1.3 0.9 0.8 0.9 2 0 0.5-0.2 0.9l-11 28.9q-1.3 3.2-2.6 6.5-1.2 3.2-3 6-1.8 2.7-4.7 4.4-2.8 1.7-7.1 1.7zm52.6-16.7q-1.5 0-2.7-0.6-1.2-0.7-1.2-2v-47.6q0-2.2 1.2-3 1.2-0.9 2.7-0.9 1.4 0 2.4 0.5 1.1 0.3 2 1.4 0.9 0.9 1.8 2.6l10.4 19.5 10.5-19.5q1-1.7 1.8-2.6 0.9-1.1 1.9-1.4 1.1-0.5 2.5-0.5 1.5 0 2.7 0.9 1.2 0.8 1.2 3v47.6q0 1.3-1.3 2-1.2 0.6-2.6 0.6-1.5 0-2.8-0.6-1.2-0.7-1.2-2v-35.5l-9.9 18.3q-0.6 1-1.4 1.4-0.7 0.5-1.5 0.5-0.7 0-1.4-0.4-0.7-0.4-1.3-1.5l-9.9-18.7v35.9q0 1.3-1.2 2-1.2 0.6-2.7 0.6zm60.1 0.6q-4 0-7.5-2-3.5-2.1-5.6-5.5-2.1-3.4-2.1-7.2v-6.8q0-3.9 2-7.2 2.1-3.4 5.6-5.4 3.5-2 7.7-2 4.1 0 7.5 2 3.6 1.9 5.7 5.2 2.1 3.3 2.1 7.4v6.8q0 3.8-2.1 7.2-2.1 3.4-5.7 5.5-3.4 2-7.6 2zm0.1-6.9q2.1 0 3.8-1.1 1.7-1.1 2.6-2.9 1.1-1.8 1.1-3.8v-6.8q0-2-1-3.7-1-1.8-2.7-2.9-1.7-1.1-3.8-1.1-2.1 0-3.9 1.1-1.6 1.1-2.6 2.9-1 1.7-1 3.7v6.8q0 2 1 3.8 1 1.8 2.6 2.9 1.8 1.1 3.9 1.1zm25.9 6.3q-1.7 0-2.8-0.8-1.1-0.8-1.1-1.8v-29.9q0-1.2 1.1-1.8 1.1-0.8 2.8-0.8 1.4 0 2.4 0.8 1.1 0.6 1.1 1.8v2.6q1.1-2.2 3.6-3.8 2.6-1.8 6.3-1.8 3.5 0 6.4 2 2.9 1.9 4.6 5.2 1.9 3.3 1.9 7.4v18.3q0 1.3-1.3 2-1.2 0.6-2.6 0.6-1.4 0-2.7-0.6-1.2-0.7-1.2-2v-18.3q0-2-1-3.7-1-1.8-2.8-2.9-1.6-1.1-3.7-1.1-1.7 0-3.4 0.9-1.6 0.9-2.7 2.7-1 1.6-1 4.1v18.3q0 1-1.1 1.8-1.2 0.8-2.8 0.8zm38 0q-1.6 0-2.7-0.8-1.1-0.8-1.1-1.8v-50.8q0-1.2 1.1-1.8 1.1-0.8 2.7-0.8 1.7 0 2.8 0.8 1.2 0.6 1.2 1.8v32.9l15.5-14.2q0.7-0.7 1.6-0.7 0.9 0 1.7 0.6 0.9 0.5 1.5 1.4 0.6 0.8 0.6 1.7 0 0.5-0.2 0.9-0.1 0.4-0.5 0.8l-9.5 8.5 11.6 16.7q0.4 0.7 0.4 1.4 0 0.9-0.7 1.8-0.7 0.9-1.7 1.5-1 0.5-2 0.5-1.2 0-2-1.1l-10.9-16-5.4 4.9v9.2q0 1-1.2 1.8-1.1 0.8-2.8 0.8zm47 0.6q-5 0-8.9-1.8-3.9-1.9-6.1-5.2-2.2-3.3-2.2-7.7v-7.1q0-3.8 2.1-7.1 2.1-3.3 5.6-5.2 3.5-2 7.8-2 3.9 0 7.2 1.8 3.4 1.7 5.4 4.8 2.1 3 2.1 7.1 0 3.1-1 4.4-1 1.3-2.6 1.6-1.5 0.3-3.2 0.3h-15.6v1.7q0 3.7 2.7 6 2.7 2.1 6.9 2.1 2.7 0 4.2-0.7 1.7-0.8 2.8-1.4 1.1-0.7 2.1-0.7 0.9 0 1.5 0.6 0.8 0.6 1 1.5 0.5 0.7 0.5 1.3 0 1.1-1.6 2.5-1.4 1.3-4.2 2.3-2.7 0.9-6.5 0.9zm-9.4-23.3v2.4h12.3q1.6 0 2.1-0.4 0.7-0.5 0.7-1.8 0-2-1.1-3.5-0.9-1.7-2.7-2.6-1.6-1-3.8-1-2 0-3.7 0.9-1.7 0.9-2.8 2.5-1 1.5-1 3.5zm28.7 39.4q-1.5 0-2.6-0.6-1-0.7-1-2.8 0-1.3 0.4-2.3 0.6-1 1.7-1 1.5 0 3.1-0.7 1.7-0.7 3.2-2.2 1.7-1.5 2.8-3.8 1.2-2.3 1.6-5.5l-12.5-28.6q-0.3-0.6-0.3-1.1 0-1 0.8-1.8 0.9-0.9 2.1-1.4 1.2-0.5 2.2-0.5 0.8 0 1.4 0.4 0.7 0.3 1 1l9.3 24.1 8-24.1q0.3-0.7 0.9-1 0.7-0.4 1.4-0.4 0.9 0 2 0.6 1.3 0.4 2.2 1.3 0.9 0.8 0.9 2 0 0.5-0.2 0.9l-11 28.9q-1.3 3.2-2.6 6.5-1.2 3.2-3 6-1.8 2.7-4.7 4.4-2.8 1.7-7.1 1.7zm52.6-16.7q-1.5 0-2.7-0.6-1.2-0.7-1.2-2v-48.9q0-1.1 0.8-1.8 0.9-0.8 2.2-0.8h14.4q4.6 0 8.3 1.6 3.6 1.6 5.8 5.2 2.2 3.5 2.2 9.5v0.6q0 5.9-2.3 9.5-2.1 3.6-6 5.3-3.7 1.6-8.4 1.6h-9.2v18.2q0 1.3-1.2 2-1.2 0.6-2.7 0.6zm3.9-47.1v20h9.2q4.1 0 6.4-2.4 2.4-2.3 2.4-7.2v-0.9q0-4.8-2.4-7.2-2.3-2.3-6.4-2.3zm35.1 47.1q-1.6 0-2.7-0.8-1.1-0.8-1.1-1.8v-29.9q0-1.2 1.1-1.8 1.1-0.8 2.7-0.8 1.5 0 2.5 0.8 1.1 0.6 1.1 1.8v3.2q0.8-1.6 2.1-3 1.4-1.4 3.2-2.3 1.9-0.9 4.1-0.9h2.4q1.1 0 1.9 1 1 1 1 2.4 0 1.4-1 2.5-0.8 1-1.9 1h-2.4q-2.3 0-4.4 1.4-2 1.2-3.3 3.7-1.3 2.4-1.3 5.8v15.1q0 1-1.2 1.8-1.1 0.8-2.8 0.8zm35.1 0.6q-4 0-7.6-2-3.4-2.1-5.5-5.5-2.1-3.4-2.1-7.2v-6.8q0-3.9 2-7.2 2.1-3.4 5.6-5.4 3.5-2 7.6-2 4.2 0 7.6 2 3.5 1.9 5.6 5.2 2.2 3.3 2.2 7.4v6.8q0 3.8-2.2 7.2-2.1 3.4-5.6 5.5-3.4 2-7.6 2zm0-6.9q2.1 0 3.8-1.1 1.7-1.1 2.7-2.9 1.1-1.8 1.1-3.8v-6.8q0-2-1-3.7-1-1.8-2.8-2.9-1.7-1.1-3.8-1.1-2.1 0-3.8 1.1-1.6 1.1-2.7 2.9-0.9 1.7-0.9 3.7v6.8q0 2 0.9 3.8 1.1 1.8 2.7 2.9 1.8 1.1 3.8 1.1z"/>
</svg>